<svg width="20" height="24" viewBox="0 0 20 24" fill="none" xmlns="http://www.w3.org/2000/svg">
<path d="M7.53027 16.3656L7.52022 16.3562L5.87251 15.0018L7.52022 13.6473C7.70107 13.4974 7.72116 13.2349 7.56041 13.0662L7.55036 13.0568L6.67627 12.1851C6.50547 12.0164 6.22415 12.0117 6.05335 12.1664L3.15478 14.7018C2.96891 14.8658 2.96891 15.1424 3.15478 15.3017L6.05335 17.8371C6.13373 17.9074 6.24425 17.9496 6.35476 17.9496C6.47533 17.9496 6.59589 17.9028 6.67627 17.8184L7.55036 16.9467C7.71614 16.7827 7.70609 16.5202 7.53027 16.3656ZM18.582 4.59285L14.3673 0.660809C13.9152 0.239016 13.3023 0 12.6643 0H2.41129C1.08006 0.00468658 0 1.0123 0 2.25425V21.7504C0 22.9924 1.08006 24 2.41129 24H16.8791C18.2103 24 19.2904 22.9924 19.2904 21.7504V6.18629C19.2904 5.5911 19.0342 5.01465 18.582 4.59285ZM12.8602 2.43702L16.6831 6.00352H12.8602V2.43702ZM16.8791 21.7504H2.41129V2.25425H10.4489V7.1283C10.4489 7.75161 10.9865 8.25308 11.6546 8.25308H16.8791V21.7504ZM10.5293 10.034C10.2932 9.96837 10.0521 10.0949 9.98175 10.3152L7.23388 19.1306C7.16355 19.3509 7.29919 19.5806 7.53529 19.6415L8.76103 19.9742C8.99714 20.0398 9.24329 19.9086 9.3086 19.693L12.0565 10.8729C12.1268 10.6526 11.9912 10.423 11.7551 10.362L10.5293 10.034ZM11.7601 13.638L11.7701 13.6473L13.4178 15.0018L11.7701 16.3562C11.5893 16.5062 11.5692 16.7686 11.7299 16.9373L11.74 16.9467L12.6141 17.8184C12.7799 17.9824 13.0612 17.9918 13.237 17.8371L16.1356 15.3017C16.3214 15.1377 16.3214 14.8612 16.1356 14.7018L13.237 12.1664C13.0612 12.0117 12.7799 12.0164 12.6141 12.1851L11.74 13.0568C11.5742 13.2209 11.5843 13.4833 11.7601 13.638Z" fill="#553B98"/>
<path d="M7.53027 16.3656L7.52022 16.3562L5.87251 15.0018L7.52022 13.6473C7.70107 13.4974 7.72116 13.2349 7.56041 13.0662L7.55036 13.0568L6.67627 12.1851C6.50547 12.0164 6.22415 12.0117 6.05335 12.1664L3.15478 14.7018C2.96891 14.8658 2.96891 15.1424 3.15478 15.3017L6.05335 17.8371C6.13373 17.9074 6.24425 17.9496 6.35476 17.9496C6.47533 17.9496 6.59589 17.9028 6.67627 17.8184L7.55036 16.9467C7.71614 16.7827 7.70609 16.5202 7.53027 16.3656ZM18.582 4.59285L14.3673 0.660809C13.9152 0.239016 13.3023 0 12.6643 0H2.41129C1.08006 0.00468658 0 1.0123 0 2.25425V21.7504C0 22.9924 1.08006 24 2.41129 24H16.8791C18.2103 24 19.2904 22.9924 19.2904 21.7504V6.18629C19.2904 5.5911 19.0342 5.01465 18.582 4.59285ZM12.8602 2.43702L16.6831 6.00352H12.8602V2.43702ZM16.8791 21.7504H2.41129V2.25425H10.4489V7.1283C10.4489 7.75161 10.9865 8.25308 11.6546 8.25308H16.8791V21.7504ZM10.5293 10.034C10.2932 9.96837 10.0521 10.0949 9.98175 10.3152L7.23388 19.1306C7.16355 19.3509 7.29919 19.5806 7.53529 19.6415L8.76103 19.9742C8.99714 20.0398 9.24329 19.9086 9.3086 19.693L12.0565 10.8729C12.1268 10.6526 11.9912 10.423 11.7551 10.362L10.5293 10.034ZM11.7601 13.638L11.7701 13.6473L13.4178 15.0018L11.7701 16.3562C11.5893 16.5062 11.5692 16.7686 11.7299 16.9373L11.74 16.9467L12.6141 17.8184C12.7799 17.9824 13.0612 17.9918 13.237 17.8371L16.1356 15.3017C16.3214 15.1377 16.3214 14.8612 16.1356 14.7018L13.237 12.1664C13.0612 12.0117 12.7799 12.0164 12.6141 12.1851L11.74 13.0568C11.5742 13.2209 11.5843 13.4833 11.7601 13.638Z" stroke="#553B98"/>
</svg>
