<svg width="24" height="22" viewBox="0 0 24 22" fill="none" xmlns="http://www.w3.org/2000/svg">
<path d="M8.02742 17.5781C8.02742 17.6684 7.91613 17.7407 7.77581 17.7407C7.61613 17.7542 7.50484 17.682 7.50484 17.5781C7.50484 17.4879 7.61613 17.4156 7.75645 17.4156C7.90161 17.4021 8.02742 17.4743 8.02742 17.5781ZM6.52258 17.375C6.48871 17.4653 6.58548 17.5691 6.73065 17.5962C6.85645 17.6413 7.00161 17.5962 7.03065 17.5059C7.05968 17.4156 6.96774 17.3118 6.82258 17.2712C6.69677 17.2396 6.55645 17.2847 6.52258 17.375ZM8.66129 17.2983C8.52097 17.3299 8.42419 17.4156 8.43871 17.5195C8.45323 17.6097 8.57903 17.6684 8.72419 17.6368C8.86452 17.6052 8.96129 17.5195 8.94677 17.4292C8.93226 17.3434 8.80161 17.2847 8.66129 17.2983ZM11.8452 0C5.13387 0 0 4.75341 0 11.0146C0 16.0208 3.37742 20.3047 8.20161 21.8124C8.82097 21.9163 9.03871 21.5596 9.03871 21.2662C9.03871 20.9863 9.02419 19.4425 9.02419 18.4945C9.02419 18.4945 5.6371 19.1716 4.92581 17.1493C4.92581 17.1493 4.37419 15.8357 3.58065 15.4971C3.58065 15.4971 2.47258 14.7884 3.65806 14.8019C3.65806 14.8019 4.8629 14.8922 5.52581 15.9666C6.58548 17.7091 8.36129 17.208 9.05323 16.9101C9.16452 16.1878 9.47903 15.6867 9.82742 15.3888C7.12258 15.1089 4.39355 14.7433 4.39355 10.4006C4.39355 9.15923 4.76129 8.53628 5.53548 7.74179C5.40968 7.44837 4.99839 6.23857 5.66129 4.67667C6.67258 4.38325 9 5.8955 9 5.8955C9.96774 5.6427 11.0081 5.51179 12.0387 5.51179C13.0694 5.51179 14.1097 5.6427 15.0774 5.8955C15.0774 5.8955 17.4048 4.37874 18.4161 4.67667C19.079 6.24309 18.6677 7.44837 18.5419 7.74179C19.3161 8.54079 19.7903 9.16375 19.7903 10.4006C19.7903 14.7568 16.9403 15.1044 14.2355 15.3888C14.6806 15.7454 15.0581 16.4225 15.0581 17.4833C15.0581 19.0046 15.0435 20.887 15.0435 21.2572C15.0435 21.5506 15.2661 21.9072 15.8806 21.8034C20.7194 20.3047 24 16.0208 24 11.0146C24 4.75341 18.5565 0 11.8452 0ZM4.70323 15.5693C4.64032 15.6145 4.65484 15.7183 4.7371 15.8041C4.81452 15.8763 4.92581 15.9079 4.98871 15.8492C5.05161 15.8041 5.0371 15.7003 4.95484 15.6145C4.87742 15.5423 4.76613 15.5107 4.70323 15.5693ZM4.18065 15.2037C4.14677 15.2624 4.19516 15.3346 4.29194 15.3798C4.36935 15.4249 4.46613 15.4113 4.5 15.3482C4.53387 15.2895 4.48548 15.2172 4.38871 15.1721C4.29194 15.145 4.21452 15.1586 4.18065 15.2037ZM5.74839 16.8107C5.67097 16.8694 5.7 17.0048 5.81129 17.0906C5.92258 17.1944 6.0629 17.208 6.12581 17.1358C6.18871 17.0771 6.15968 16.9416 6.0629 16.8559C5.95645 16.7521 5.81129 16.7385 5.74839 16.8107ZM5.19677 16.1472C5.11935 16.1923 5.11935 16.3097 5.19677 16.4135C5.27419 16.5173 5.40484 16.5625 5.46774 16.5173C5.54516 16.4586 5.54516 16.3413 5.46774 16.2374C5.4 16.1336 5.27419 16.0885 5.19677 16.1472Z" fill="#553B98"/>
</svg>
