<svg width="16" height="24" viewBox="0 0 16 24" fill="none" xmlns="http://www.w3.org/2000/svg">
<path d="M0.621916 18.907H0.753182C1.34856 18.907 1.94863 18.907 2.54402 18.9117C2.61902 18.9117 2.68935 18.893 2.71279 19.0102C3.04564 20.6463 4.1192 21.5699 5.66157 22.0058C6.92265 22.3621 8.1978 22.3715 9.47295 22.0902C11.0575 21.7433 12.0983 20.7635 12.6608 19.2586C13.0359 18.2507 13.1624 17.2053 13.1765 16.1411C13.1812 15.8692 13.1906 13.9377 13.1671 13.6658L13.1249 13.6517C13.0874 13.7221 13.0452 13.7877 13.0077 13.858C11.9717 15.8786 10.134 17.0178 8.06654 17.0975C3.23785 17.285 0.124983 14.4253 0.0030941 8.83711C-0.0203461 7.72605 0.087479 6.63842 0.392202 5.56954C1.35794 2.23634 3.88949 0.028271 7.60711 0.000142709C10.4809 -0.0186095 12.3655 1.81442 13.0546 3.29584C13.0781 3.34741 13.1156 3.40367 13.1671 3.38491V0.497076H15.2439C15.2439 13.6377 15.2486 16.0708 15.2486 16.0708C15.2439 19.7509 13.9969 22.8075 10.4199 23.6748C7.16174 24.4671 2.96594 23.8998 1.23136 20.9932C0.856319 20.3603 0.678173 19.6665 0.621916 18.907ZM7.48053 1.71128C5.01931 1.68784 2.394 3.61932 2.08928 7.98389C1.89707 10.7498 2.78311 13.7127 5.44123 14.9503C6.73513 15.5551 8.92445 15.6535 10.5184 14.5425C12.7499 12.986 13.4578 9.99506 13.0874 7.32287C12.6327 3.98967 10.8465 1.69722 7.48053 1.71128Z" fill="#553B98"/>
</svg>
