<svg width="24" height="23" viewBox="0 0 24 23" fill="none" xmlns="http://www.w3.org/2000/svg">
<path d="M5.37214 22.3897H0.396429V7.44126H5.37214V22.3897ZM2.88161 5.40215C1.29054 5.40215 0 4.17268 0 2.68833C1.13882e-08 1.97534 0.303597 1.29155 0.844003 0.787393C1.38441 0.283234 2.11736 0 2.88161 0C3.64586 0 4.3788 0.283234 4.91921 0.787393C5.45962 1.29155 5.76321 1.97534 5.76321 2.68833C5.76321 4.17268 4.47214 5.40215 2.88161 5.40215ZM23.9946 22.3897H19.0296V15.1129C19.0296 13.3787 18.9921 11.1546 16.4427 11.1546C13.8557 11.1546 13.4593 13.0388 13.4593 14.988V22.3897H8.48893V7.44126H13.2611V9.48037H13.3307C13.995 8.30588 15.6177 7.06642 18.0386 7.06642C23.0743 7.06642 24 10.1601 24 14.1783V22.3897H23.9946Z" fill="#553B98"/>
</svg>
