<svg width="24" height="17" viewBox="0 0 24 17" fill="none" xmlns="http://www.w3.org/2000/svg">
<path d="M21.75 0H2.25C1.00734 0 0 0.939778 0 2.09909V14.6936C0 15.8529 1.00734 16.7927 2.25 16.7927H21.75C22.9927 16.7927 24 15.8529 24 14.6936V2.09909C24 0.939778 22.9927 0 21.75 0ZM21.75 2.09909V3.88353C20.699 4.68201 19.0234 5.92362 15.4412 8.54044C14.6518 9.11974 13.0881 10.5115 12 10.4953C10.9121 10.5117 9.34786 9.11952 8.55877 8.54044C4.97719 5.92401 3.30117 4.68214 2.25 3.88353V2.09909H21.75ZM2.25 14.6936V6.57705C3.32409 7.37518 4.8473 8.49517 7.16897 10.1912C8.19352 10.9436 9.98775 12.6046 12 12.5945C14.0024 12.6046 15.7739 10.9677 16.8306 10.1916C19.1522 8.49557 20.6759 7.37527 21.75 6.57709V14.6936H2.25Z" fill="#553B98"/>
</svg>
